<svg width="28" height="29" viewBox="0 0 28 29" fill="none" xmlns="http://www.w3.org/2000/svg">
<path d="M13.9995 2.83301C14.5115 2.83301 15.0151 2.96864 15.4585 3.22461C15.9017 3.48057 16.2699 3.84876 16.5259 4.29199L25.9585 20.625H25.9556C26.2115 21.0683 26.3471 21.5711 26.3472 22.083C26.3472 22.595 26.2115 23.0986 25.9556 23.542C25.6996 23.9852 25.3314 24.3535 24.8882 24.6094C24.4449 24.8653 23.942 25 23.4302 25H4.56982C4.05774 25.0004 3.55449 24.8661 3.11084 24.6104C2.66725 24.3546 2.29873 23.9863 2.04248 23.543C1.78624 23.0995 1.65099 22.5961 1.65088 22.084C1.65078 21.5718 1.78544 21.0685 2.0415 20.625L11.4741 4.29199C11.7301 3.84876 12.0983 3.48057 12.5415 3.22461C12.9847 2.96872 13.4877 2.83309 13.9995 2.83301ZM13.9995 18.583C12.8722 18.5833 11.9585 19.4976 11.9585 20.625C11.9585 21.7524 12.8722 22.6667 13.9995 22.667C15.1271 22.667 16.0415 21.7526 16.0415 20.625C16.0415 19.4974 15.1271 18.583 13.9995 18.583ZM13.8306 8.08301C13.5861 8.08304 13.3441 8.13421 13.1206 8.2334C12.8971 8.33262 12.6968 8.47782 12.5327 8.65918C12.3687 8.84055 12.2448 9.05477 12.1685 9.28711C12.0921 9.5194 12.0649 9.7655 12.0894 10.0088L12.7778 16.8916C12.8069 17.1954 12.9483 17.4776 13.1743 17.6826C13.4002 17.8875 13.6946 18.0005 13.9995 18C14.3052 18.0014 14.601 17.8887 14.8276 17.6836C15.0543 17.4785 15.196 17.1959 15.2251 16.8916L15.9136 10.0088C15.9381 9.7652 15.911 9.51868 15.8345 9.28613C15.7579 9.05363 15.6336 8.83961 15.4692 8.6582C15.305 8.4769 15.1041 8.33243 14.8804 8.2334C14.6566 8.13439 14.4142 8.08263 14.1694 8.08301H13.8306Z" fill="url(#paint0_linear_3052_1876)"/>
<defs>
<linearGradient id="paint0_linear_3052_1876" x1="7.07823" y1="12.3624" x2="24.5162" y2="24.6435" gradientUnits="userSpaceOnUse">
<stop stop-color="#FE2600"/>
<stop offset="1" stop-color="#F51515"/>
</linearGradient>
</defs>
</svg>
