<svg width="18" height="23" viewBox="0 0 18 23" fill="none" xmlns="http://www.w3.org/2000/svg">
<path fill-rule="evenodd" clip-rule="evenodd" d="M9 5.08921C6.74065 5.08921 4.90909 6.84811 4.90909 9.01782C4.90909 11.1875 6.74065 12.9464 9 12.9464C11.2593 12.9464 13.0909 11.1875 13.0909 9.01782C13.0909 6.84811 11.2593 5.08921 9 5.08921ZM9 11.375C7.64439 11.375 6.54545 10.3196 6.54545 9.01782C6.54545 7.71599 7.64439 6.66066 9 6.66066C10.3556 6.66066 11.4545 7.71599 11.4545 9.01782C11.4545 10.3196 10.3556 11.375 9 11.375ZM9 0.374878C4.03177 0.38029 0.00563611 4.2467 0 9.01782C0 12.1018 1.48398 15.3704 4.29545 18.471C5.55875 19.8721 6.98058 21.1338 8.53466 22.2327C8.81648 22.4223 9.1917 22.4223 9.47352 22.2327C11.0247 21.1333 12.4438 19.8717 13.7045 18.471C16.5119 15.3704 18 12.1018 18 9.01782C17.9944 4.2467 13.9682 0.38029 9 0.374878ZM9 20.6072C7.30943 19.3304 1.63636 14.6406 1.63636 9.01782C1.63636 5.11234 4.93318 1.94632 9 1.94632C13.0668 1.94632 16.3636 5.11234 16.3636 9.01782C16.3636 14.6387 10.6906 19.3304 9 20.6072Z" fill="#121417"/>
</svg>
