<svg width="28" height="29" viewBox="0 0 28 29" fill="none" xmlns="http://www.w3.org/2000/svg">
<path d="M13.9999 26.1663C20.4432 26.1663 25.6666 20.943 25.6666 14.4997C25.6666 8.05635 20.4432 2.83301 13.9999 2.83301C7.5566 2.83301 2.33325 8.05635 2.33325 14.4997C2.33325 20.943 7.5566 26.1663 13.9999 26.1663Z" fill="#32BA7C"/>
<path d="M11.0186 19.7631L17.0175 25.762C21.986 24.4371 25.6663 19.9103 25.6663 14.5002V14.169L20.9555 9.82617L11.0186 19.7631Z" fill="#0AA06E"/>
<path d="M14.2947 17.1129C14.81 17.6281 14.81 18.5114 14.2947 19.0267L13.2274 20.094C12.7122 20.6092 11.8289 20.6092 11.3136 20.094L6.63961 15.3831C6.12436 14.8679 6.12436 13.9846 6.63961 13.4694L7.70691 12.4021C8.22215 11.8868 9.10543 11.8868 9.62068 12.4021L14.2947 17.1129Z" fill="white"/>
<path d="M18.3799 8.97921C18.8952 8.46396 19.7784 8.46396 20.2937 8.97921L21.361 10.0465C21.8762 10.5618 21.8762 11.445 21.361 11.9603L13.2642 20.0202C12.749 20.5355 11.8657 20.5355 11.3505 20.0202L10.2832 18.9529C9.76792 18.4377 9.76792 17.5544 10.2832 17.0391L18.3799 8.97921Z" fill="white"/>
</svg>
